<svg width="233" height="233" viewBox="0 0 233 233" fill="none" xmlns="http://www.w3.org/2000/svg">
<circle cx="116.5" cy="116.5" r="116.5" fill="black"/>
<path fill-rule="evenodd" clip-rule="evenodd" d="M62.0012 66.0179L107.148 68.4286L122.197 92.5357L144.374 78.0714L121.658 105.727L120.295 107.289L101.953 81.2939L83.7111 81.1144L110.334 118.967L61.2091 185.75L59.625 184.946L60.4171 182.536L92.8911 118.25L62.0012 68.4286V66.0179ZM123.616 111.995L149.063 148.06L149.594 149.137L131.175 148.598L112.672 122.291L88.1388 151.196L88.9309 153.607L112.692 138.339L126.949 161.643L170.92 163.25L138.83 111.821L173.68 45.125L172.383 45.125L123.781 111.821L123.757 111.784L123.616 111.995Z" fill="#FF8900"/>
</svg>
